<?xml version="1.0" encoding="UTF-8"?>
<svg width="200" height="200" viewBox="0 0 200 200" xmlns="http://www.w3.org/2000/svg">
  <defs>
    <!-- Simple, subtle gradient -->
    <linearGradient id="subtle-gradient" x1="0%" y1="0%" x2="100%" y2="100%">
      <stop offset="0%" style="stop-color:#3b82f6;stop-opacity:0.15"/>
      <stop offset="100%" style="stop-color:#8b5cf6;stop-opacity:0.15"/>
    </linearGradient>
    
    <!-- Simple grid pattern -->
    <pattern id="grid" width="50" height="50" patternUnits="userSpaceOnUse">
      <path d="M 50 0 L 0 0 0 50" fill="none" stroke="#c7d2fe" stroke-width="0.8"/>
    </pattern>
    
    <!-- Simple dots pattern -->
    <pattern id="dots" width="20" height="20" patternUnits="userSpaceOnUse">
      <circle cx="10" cy="10" r="1.2" fill="#c7d2fe"/>
    </pattern>
    
    <!-- String-like lines pattern -->
    <pattern id="string-lines" width="100" height="100" patternUnits="userSpaceOnUse">
      <!-- Horizontal strings -->
      <line x1="0" y1="20" x2="100" y2="20" stroke="#c7d2fe" stroke-width="0.8" stroke-dasharray="1,3"/>
      <line x1="0" y1="40" x2="100" y2="40" stroke="#c7d2fe" stroke-width="0.8" stroke-dasharray="2,4"/>
      <line x1="0" y1="60" x2="100" y2="60" stroke="#c7d2fe" stroke-width="0.8" stroke-dasharray="1,2"/>
      <line x1="0" y1="80" x2="100" y2="80" stroke="#c7d2fe" stroke-width="0.8" stroke-dasharray="3,3"/>
      
      <!-- Vertical strings -->
      <line x1="20" y1="0" x2="20" y2="100" stroke="#c7d2fe" stroke-width="0.8" stroke-dasharray="2,3"/>
      <line x1="50" y1="0" x2="50" y2="100" stroke="#c7d2fe" stroke-width="0.8" stroke-dasharray="1,4"/>
      <line x1="80" y1="0" x2="80" y2="100" stroke="#c7d2fe" stroke-width="0.8" stroke-dasharray="2,2"/>
    </pattern>
    
    <!-- Diagonal lines -->
    <pattern id="diagonal" width="100" height="100" patternUnits="userSpaceOnUse">
      <line x1="0" y1="0" x2="100" y2="100" stroke="#c7d2fe" stroke-width="0.8" stroke-dasharray="1,6"/>
      <line x1="100" y1="0" x2="0" y2="100" stroke="#c7d2fe" stroke-width="0.8" stroke-dasharray="1,6"/>
    </pattern>
  </defs>
  
  <!-- Background layers -->
  <rect width="200" height="200" fill="url(#subtle-gradient)"/>
  <rect width="200" height="200" fill="url(#dots)" opacity="0.7"/>
  <rect width="200" height="200" fill="url(#string-lines)" opacity="0.5"/>
  <rect width="200" height="200" fill="url(#grid)" opacity="0.4"/>
  <rect width="200" height="200" fill="url(#diagonal)" opacity="0.3"/>
</svg> 